# This file uses centimeters as units for non-parametric coordinates.

mtllib vehicleb.mtl
g default
v 0.024682 0.146410 -1.758682
v 0.024682 0.032766 -1.758682
v 0.579779 -0.318931 2.002208
v 0.343727 -0.318931 -0.030072
v 0.690093 -0.500000 -1.325900
v 0.892341 -0.721644 -1.537214
v 0.867750 -0.533455 -0.075918
v -0.071515 0.247253 -1.750266
v 0.492777 -0.132371 3.139903
v 0.492777 0.098274 3.139903
v 0.375285 0.227487 3.150182
v -0.152509 0.247253 -1.743180
v -0.152509 0.146410 -1.743180
v -0.152509 0.032766 -1.743180
v 0.000000 -0.318931 -0.000000
v 0.152509 -0.318931 1.743180
v 0.276362 -0.132371 3.158837
v 0.276362 0.098274 3.158837
v 0.276362 0.227487 3.158837
v 0.370620 0.183181 0.055019
v 0.330776 0.120989 -0.100243
v 0.690093 -0.346707 -1.325900
v 0.709883 -0.276737 -1.240351
v 0.565872 0.089011 1.915953
v 0.573480 0.003386 2.059425
v 0.834039 -0.161363 -0.114151
v 0.869654 -0.270169 -0.075383
v 0.892027 -0.567710 -1.537187
v 0.850971 -0.425641 -1.446145
v 0.175816 0.399182 0.072093
v 0.151828 0.399182 -0.097987
v 0.324066 0.387761 1.812270
v 0.318478 0.399182 1.641186
v 0.007599 0.399182 0.086858
v -0.007408 0.399182 -0.084679
v 0.160038 0.387405 1.829243
v 0.144910 0.399182 1.656323
v -0.092635 0.113484 -2.432381
v 0.037619 0.113484 -2.443777
v -0.092635 0.214328 -2.432381
v -0.058579 0.214328 -2.435361
v 0.037619 -0.000159 -2.443777
v -0.092635 -0.000159 -2.432381
v -0.329699 0.146410 -1.727678
v -0.329699 0.032766 -1.727678
v -0.223291 -0.318931 2.072467
v -0.343727 -0.318931 0.030072
v -0.915058 -0.500000 -1.185468
v -1.150927 -0.721644 -1.358451
v -0.867434 -0.533455 0.075891
v -0.233502 0.247253 -1.736094
v 0.059948 -0.132371 3.177771
v 0.059948 0.098274 3.177771
v 0.177439 0.227487 3.167491
v -0.355436 0.183181 0.118540
v -0.343157 0.120989 -0.041282
v -0.915058 -0.346707 -1.185468
v -0.919692 -0.276737 -1.097782
v -0.224573 0.089011 1.985108
v -0.207152 0.003386 2.127721
v -0.840875 -0.161363 0.032385
v -0.869216 -0.270169 0.076748
v -1.150614 -0.567710 -1.358479
v -1.094373 -0.425641 -1.275950
v -0.160626 0.399182 0.101528
v -0.166537 0.399182 -0.070133
v -0.004446 0.387761 1.841011
v -0.028651 0.399182 1.671556
v -0.331151 0.113484 -2.411514
v -0.461404 0.113484 -2.400118
v -0.331151 0.214328 -2.411514
v -0.365207 0.214328 -2.408534
v -0.461404 -0.000159 -2.400118
v -0.331151 -0.000159 -2.411514
vt 0.515511 0.702191
vt 0.402720 0.644612
vt 0.577570 0.639108
vt 0.592133 0.665494
vt 0.390013 0.842966
vt 0.627877 0.095237
vt 0.660288 0.078429
vt 0.661278 0.092190
vt 0.654720 0.096222
vt 0.403316 0.423365
vt 0.398348 0.420705
vt 0.398872 0.413427
vt 0.409685 0.423080
vt 0.380205 0.465841
vt 0.342233 0.646102
vt 0.341907 0.448542
vt 0.341897 0.818416
vt 0.341870 0.918638
vt 0.358437 0.919016
vt 0.341869 0.933484
vt 0.358246 0.933696
vt 0.724241 0.567927
vt 0.724240 0.597041
vt 0.694878 0.593002
vt 0.712889 0.567113
vt 0.665791 0.329377
vt 0.666608 0.313651
vt 0.702359 0.314536
vt 0.700944 0.328504
vt 0.572950 0.265144
vt 0.573649 0.248965
vt 0.519549 0.253200
vt 0.492363 0.239977
vt 0.658962 0.478157
vt 0.652557 0.497798
vt 0.557511 0.344740
vt 0.573314 0.335645
vt 0.700695 0.452167
vt 0.702170 0.467258
vt 0.724248 0.314540
vt 0.724248 0.328294
vt 0.724244 0.452461
vt 0.724244 0.467063
vt 0.390697 0.468965
vt 0.431839 0.602140
vt 0.584211 0.631193
vt 0.604744 0.667863
vt 0.575582 0.622902
vt 0.529632 0.722890
vt 0.407101 0.860451
vt 0.681117 0.163446
vt 0.703753 0.158428
vt 0.371968 0.924843
vt 0.724251 0.152912
vt 0.724252 0.135847
vt 0.343764 0.435921
vt 0.168019 0.701919
vt 0.091085 0.665142
vt 0.105678 0.638639
vt 0.281299 0.644208
vt 0.293731 0.842941
vt 0.820628 0.095238
vt 0.793784 0.096223
vt 0.787226 0.092190
vt 0.788216 0.078429
vt 0.274314 0.410578
vt 0.266913 0.412464
vt 0.272035 0.394598
vt 0.281976 0.398957
vt 0.305765 0.461470
vt 0.325302 0.919016
vt 0.325492 0.933696
vt 0.735593 0.567114
vt 0.753602 0.593004
vt 0.782704 0.329380
vt 0.747551 0.328505
vt 0.746137 0.314537
vt 0.781888 0.313654
vt 0.874851 0.248972
vt 0.875549 0.265152
vt 0.956138 0.239989
vt 0.928951 0.253211
vt 0.789525 0.478160
vt 0.875181 0.335654
vt 0.890984 0.344749
vt 0.795929 0.497803
vt 0.746318 0.467259
vt 0.747793 0.452169
vt 0.293221 0.465690
vt 0.251707 0.601460
vt 0.078429 0.667531
vt 0.099004 0.630700
vt 0.107669 0.622365
vt 0.153863 0.722695
vt 0.276630 0.860444
vt 0.744750 0.158428
vt 0.767386 0.163447
vt 0.311766 0.924843
vt 0.287644 0.395703
vn -0.246705 -0.968342 -0.038088
vn -0.246705 -0.968342 -0.038088
vn -0.246705 -0.968342 -0.038088
vn -0.246705 -0.968342 -0.038088
vn -0.169661 -0.985314 0.019251
vn -0.169661 -0.985314 0.019251
vn -0.169661 -0.985314 0.019251
vn -0.087156 -0.000002 -0.996195
vn -0.087156 -0.000002 -0.996195
vn -0.087156 -0.000002 -0.996195
vn -0.087156 -0.000002 -0.996195
vn -0.087156 0.000000 -0.996195
vn -0.087156 0.000000 -0.996195
vn -0.087156 0.000000 -0.996195
vn -0.087156 0.000000 -0.996195
vn -0.017174 -0.980394 -0.196297
vn -0.006499 -0.997216 -0.074289
vn -0.007017 -0.996754 -0.080201
vn -0.017174 -0.980394 -0.196297
vn 0.000000 -1.000000 0.000000
vn -0.007017 -0.996754 -0.080201
vn -0.006499 -0.997216 -0.074289
vn 0.000000 -1.000000 0.000000
vn 0.000000 -1.000000 0.000000
vn 0.000000 -1.000000 0.000000
vn 0.000000 -1.000000 0.000000
vn 0.000000 -1.000000 0.000000
vn 0.087156 0.000000 0.996195
vn 0.087156 0.000000 0.996195
vn 0.087156 0.000000 0.996195
vn 0.087156 0.000000 0.996195
vn 0.087156 0.000000 0.996195
vn 0.087156 0.000000 0.996195
vn 0.087156 0.000000 0.996195
vn 0.087156 0.000000 0.996195
vn 0.406701 0.913433 -0.015303
vn 0.599615 0.779962 -0.179225
vn 0.600397 0.780037 -0.176253
vn 0.590250 0.805444 -0.053530
vn -0.135864 0.888389 -0.438527
vn -0.135864 0.888389 -0.438527
vn -0.135864 0.888389 -0.438527
vn -0.135864 0.888389 -0.438527
vn -0.150242 0.610969 -0.777267
vn -0.150242 0.610969 -0.777267
vn -0.150242 0.610969 -0.777267
vn -0.150242 0.610969 -0.777267
vn 0.588978 0.800588 0.110293
vn 0.754797 0.627516 0.191061
vn 0.789891 0.557878 0.254647
vn 0.788011 0.558842 0.258329
vn 0.754797 0.627516 0.191061
vn 0.588978 0.800588 0.110293
vn 0.590424 0.806928 -0.016324
vn 0.722723 0.667082 0.180758
vn 0.788011 0.558842 0.258329
vn 0.789891 0.557878 0.254647
vn 0.809729 0.546544 0.213609
vn 0.809729 0.546544 0.213609
vn 0.000000 1.000000 0.000000
vn -0.006734 0.996908 -0.078288
vn -0.006835 0.996814 -0.079472
vn 0.000000 1.000000 0.000000
vn 0.009435 0.993937 0.109547
vn 0.000493 0.999982 0.005981
vn 0.000523 0.999980 0.006331
vn 0.009535 0.993816 0.110633
vn 0.968101 0.000000 -0.250560
vn 0.968101 0.000000 -0.250560
vn 0.968101 0.000000 -0.250560
vn 0.968101 0.000000 -0.250560
vn -0.411880 -0.000850 -0.911238
vn -0.411880 -0.000850 -0.911238
vn -0.411880 -0.000850 -0.911238
vn -0.411880 -0.000850 -0.911238
vn -0.725277 -0.102089 -0.680846
vn -0.725277 -0.102089 -0.680846
vn -0.725277 -0.102089 -0.680846
vn -0.725277 -0.102089 -0.680846
vn 0.406701 0.913433 -0.015303
vn 0.297282 0.954447 -0.025568
vn 0.297335 0.953384 -0.051480
vn 0.297335 0.953384 -0.051480
vn 0.912493 -0.021851 0.408508
vn 0.914254 -0.020487 0.404624
vn 0.930130 -0.007453 0.367155
vn 0.930130 -0.007453 0.367155
vn 0.406701 0.913433 -0.015303
vn 0.588978 0.800588 0.110293
vn 0.297282 0.954447 -0.025568
vn 0.932344 -0.018399 0.361105
vn 0.924200 -0.021314 0.381313
vn 0.914254 -0.020487 0.404624
vn 0.912493 -0.021851 0.408508
vn 0.599615 0.779962 -0.179225
vn 0.604568 0.780318 -0.160003
vn 0.604568 0.780318 -0.160003
vn 0.600397 0.780037 -0.176253
vn 0.588978 0.800588 0.110293
vn 0.406701 0.913433 -0.015303
vn 0.590250 0.805444 -0.053530
vn 0.590424 0.806928 -0.016324
vn 0.924200 -0.021314 0.381313
vn 0.932344 -0.018399 0.361105
vn 0.967662 -0.002960 0.252233
vn 0.967662 -0.002960 0.252233
vn 0.754797 0.627516 0.191061
vn 0.722723 0.667082 0.180758
vn 0.759750 0.628977 0.164827
vn 0.759750 0.628977 0.164827
vn -0.007786 0.995863 -0.090535
vn -0.006835 0.996814 -0.079472
vn -0.006734 0.996908 -0.078288
vn -0.007786 0.995863 -0.090535
vn 0.009435 0.993937 0.109547
vn 0.009535 0.993816 0.110633
vn 0.010259 0.992897 0.118534
vn 0.010259 0.992897 0.118534
vn 0.000000 1.000000 0.000000
vn 0.000000 1.000000 0.000000
vn 0.000523 0.999980 0.006331
vn 0.000493 0.999982 0.005981
vn -0.977694 0.000000 -0.210037
vn -0.977694 0.000000 -0.210037
vn -0.977694 0.000000 -0.210037
vn -0.977694 0.000000 -0.210037
vn -0.033037 0.925375 -0.377610
vn -0.033037 0.925375 -0.377610
vn -0.033037 0.925375 -0.377610
vn -0.033037 0.925375 -0.377610
vn 0.472110 0.832277 -0.290563
vn 0.472110 0.832277 -0.290563
vn 0.472110 0.832277 -0.290563
vn 0.472110 0.832277 -0.290563
vn 0.033037 -0.925375 0.377611
vn 0.033037 -0.925375 0.377611
vn 0.033037 -0.925375 0.377611
vn 0.033037 -0.925375 0.377611
vn -0.977694 0.000000 -0.210037
vn -0.977694 0.000000 -0.210037
vn -0.977694 0.000000 -0.210037
vn -0.977694 0.000000 -0.210037
vn 0.995256 0.000000 0.097294
vn 0.995256 0.000000 0.097294
vn 0.995256 0.000000 0.097294
vn 0.995256 0.000000 0.097294
vn 0.236342 -0.968342 -0.080349
vn 0.236343 -0.968342 -0.080349
vn 0.236343 -0.968342 -0.080349
vn 0.236343 -0.968342 -0.080349
vn 0.170426 -0.985314 -0.010503
vn 0.170426 -0.985314 -0.010503
vn 0.170426 -0.985314 -0.010503
vn -0.087156 0.000000 -0.996195
vn -0.087156 0.000000 -0.996195
vn -0.087156 0.000000 -0.996195
vn -0.087156 0.000000 -0.996195
vn -0.087156 0.000000 -0.996195
vn -0.087156 0.000000 -0.996195
vn -0.087156 0.000000 -0.996195
vn -0.087156 0.000000 -0.996195
vn -0.017174 -0.980394 -0.196297
vn -0.017174 -0.980394 -0.196297
vn -0.007017 -0.996754 -0.080201
vn -0.006499 -0.997216 -0.074289
vn 0.000000 -1.000000 0.000000
vn 0.000000 -1.000000 0.000000
vn -0.006499 -0.997216 -0.074289
vn -0.007017 -0.996754 -0.080201
vn 0.000000 -1.000000 0.000000
vn 0.000000 -1.000000 0.000000
vn 0.000000 -1.000000 0.000000
vn 0.000000 -1.000000 0.000000
vn 0.087156 0.000000 0.996195
vn 0.087156 0.000000 0.996195
vn 0.087156 0.000000 0.996195
vn 0.087156 0.000000 0.996195
vn 0.087156 0.000000 0.996195
vn 0.087156 0.000000 0.996195
vn 0.087156 0.000000 0.996195
vn 0.087156 0.000000 0.996195
vn -0.403180 0.913433 0.055553
vn -0.590578 0.805444 0.049779
vn -0.621882 0.780037 -0.069317
vn -0.621628 0.779962 -0.072380
vn 0.057651 0.888389 -0.455458
vn 0.057651 0.888389 -0.455458
vn 0.057651 0.888389 -0.455458
vn 0.057651 0.888389 -0.455458
vn 0.012989 0.610970 -0.791547
vn 0.012989 0.610970 -0.791547
vn 0.012989 0.610970 -0.791547
vn 0.012989 0.610970 -0.791547
vn -0.560878 0.800588 0.210892
vn -0.731181 0.558842 0.391241
vn -0.733671 0.557878 0.387942
vn -0.710153 0.627516 0.319228
vn -0.710153 0.627516 0.319228
vn -0.680355 0.667082 0.303512
vn -0.584289 0.806928 0.086450
vn -0.560878 0.800588 0.210892
vn -0.731181 0.558842 0.391241
vn -0.760334 0.546544 0.350972
vn -0.760334 0.546544 0.350972
vn -0.733671 0.557878 0.387942
vn 0.000000 1.000000 0.000000
vn 0.000000 1.000000 0.000000
vn -0.007069 0.996814 -0.079451
vn -0.006963 0.996908 -0.078268
vn 0.009731 0.993937 0.109521
vn 0.009821 0.993816 0.110608
vn 0.000584 0.999980 0.006325
vn 0.000553 0.999982 0.005976
vn -0.996903 0.000000 -0.078644
vn -0.996903 0.000000 -0.078644
vn -0.996903 0.000000 -0.078644
vn -0.996903 0.000000 -0.078644
vn 0.247388 -0.000850 -0.968916
vn 0.247388 -0.000850 -0.968916
vn 0.247388 -0.000850 -0.968916
vn 0.247388 -0.000850 -0.968916
vn 0.596031 -0.102089 -0.796446
vn 0.596031 -0.102089 -0.796446
vn 0.596031 -0.102089 -0.796446
vn 0.596031 -0.102089 -0.796446
vn -0.403180 0.913433 0.055553
vn -0.301757 0.953384 0.000933
vn -0.301757 0.953384 0.000933
vn -0.297205 0.954447 0.026443
vn -0.827693 -0.021851 0.560755
vn -0.852243 -0.007453 0.523092
vn -0.852243 -0.007453 0.523092
vn -0.830102 -0.020487 0.557236
vn -0.403180 0.913433 0.055553
vn -0.297205 0.954447 0.026443
vn -0.560878 0.800588 0.210892
vn -0.855474 -0.018399 0.517519
vn -0.827693 -0.021851 0.560755
vn -0.830102 -0.020487 0.557236
vn -0.843945 -0.021314 0.536006
vn -0.621628 0.779962 -0.072380
vn -0.621882 0.780037 -0.069317
vn -0.623167 0.780319 -0.052591
vn -0.623167 0.780318 -0.052591
vn -0.560878 0.800588 0.210892
vn -0.584289 0.806928 0.086450
vn -0.590578 0.805444 0.049779
vn -0.403180 0.913433 0.055553
vn -0.843945 -0.021314 0.536006
vn -0.909161 -0.002960 0.416433
vn -0.909161 -0.002960 0.416433
vn -0.855474 -0.018399 0.517519
vn -0.710153 0.627516 0.319228
vn -0.719586 0.628977 0.294252
vn -0.719586 0.628977 0.294252
vn -0.680355 0.667082 0.303512
vn -0.008053 0.995863 -0.090512
vn -0.008053 0.995863 -0.090512
vn -0.006963 0.996908 -0.078268
vn -0.007069 0.996814 -0.079451
vn 0.009731 0.993937 0.109521
vn 0.010480 0.992897 0.118515
vn 0.010480 0.992897 0.118515
vn 0.009821 0.993816 0.110608
vn 0.000000 1.000000 0.000000
vn 0.000553 0.999982 0.005976
vn 0.000584 0.999980 0.006325
vn 0.000000 1.000000 0.000000
vn 0.926368 0.000000 -0.376620
vn 0.926368 0.000000 -0.376620
vn 0.926368 0.000000 -0.376620
vn 0.926368 0.000000 -0.376620
vn -0.033037 0.925375 -0.377610
vn -0.033037 0.925375 -0.377610
vn -0.033037 0.925375 -0.377610
vn -0.033037 0.925375 -0.377611
vn -0.515394 0.832277 -0.204167
vn -0.515394 0.832277 -0.204167
vn -0.515394 0.832277 -0.204167
vn -0.515394 0.832277 -0.204167
vn 0.033037 -0.925375 0.377611
vn 0.033037 -0.925375 0.377611
vn 0.033037 -0.925375 0.377611
vn 0.033037 -0.925375 0.377611
vn 0.926368 0.000000 -0.376620
vn 0.926368 0.000000 -0.376620
vn 0.926368 0.000000 -0.376620
vn 0.926368 0.000000 -0.376620
vn -0.963241 0.000000 0.268640
vn -0.963241 0.000000 0.268640
vn -0.963241 0.000000 0.268640
vn -0.963241 0.000000 0.268640
s off
g thing:RoadKillOut
usemtl initialShadingGroup
f 7/1/1 4/2/2 5/3/3 6/4/4
f 3/5/5 4/2/6 7/1/7
f 39/6/8 38/7/9 40/8/10 41/9/11
f 42/10/12 43/11/13 38/12/14 39/13/15
f 2/14/16 4/2/17 15/15/18 14/16/19
f 16/17/20 15/15/21 4/2/22 3/5/23
f 17/18/24 16/17/25 3/5/26 9/19/27
f 18/20/28 17/18/29 9/19/30 10/21/31
f 19/22/32 18/23/33 10/24/34 11/25/35
f 20/26/36 21/27/37 31/28/38 30/29/39
f 21/27/40 20/26/41 23/30/42 22/31/43
f 22/31/44 23/30/45 29/32/46 28/33/47
f 24/34/48 25/35/49 27/36/50 26/37/51
f 25/35/52 24/34/53 33/38/54 32/39/55
f 26/37/56 27/36/57 28/33/58 29/32/59
f 30/29/60 31/28/61 35/40/62 34/41/63
f 32/39/64 33/38/65 37/42/66 36/43/67
f 1/44/68 21/45/69 4/2/70 2/14/71
f 5/3/72 22/46/73 28/47/74 6/4/75
f 4/2/76 21/45/77 22/48/78 5/3/79
f 20/26/80 26/37/81 29/32/82 23/30/83
f 27/49/84 7/1/85 6/4/86 28/47/87
f 20/26/88 24/34/89 26/37/90
f 25/50/91 3/5/92 7/1/93 27/49/94
f 21/27/95 1/51/96 8/52/97 31/28/98
f 24/34/99 20/26/100 30/29/101 33/38/102
f 3/5/103 25/50/104 10/53/105 9/19/106
f 25/35/107 32/39/108 11/25/109 10/24/110
f 12/54/111 35/40/112 31/28/113 8/52/114
f 32/39/115 36/43/116 19/22/117 11/25/118
f 30/29/119 34/41/120 37/42/121 33/38/122
f 13/55/123 12/54/124 40/8/125 38/7/126
f 12/54/127 8/52/128 41/9/129 40/8/130
f 8/52/131 1/51/132 39/6/133 41/9/134
f 2/14/135 14/16/136 43/11/137 42/10/138
f 14/16/139 13/56/140 38/12/141 43/11/142
f 1/44/143 2/14/144 42/10/145 39/13/146
f 50/57/147 49/58/148 48/59/149 47/60/150
f 46/61/151 50/57/152 47/60/153
f 70/62/154 72/63/155 71/64/156 69/65/157
f 73/66/158 70/67/159 69/68/160 74/69/161
f 45/70/162 14/16/163 15/15/164 47/60/165
f 16/17/166 46/61/167 47/60/168 15/15/169
f 17/18/170 52/71/171 46/61/172 16/17/173
f 18/20/174 53/72/175 52/71/176 17/18/177
f 19/22/178 54/73/179 53/74/180 18/23/181
f 55/75/182 65/76/183 66/77/184 56/78/185
f 56/78/186 57/79/187 58/80/188 55/75/189
f 57/79/190 63/81/191 64/82/192 58/80/193
f 59/83/194 61/84/195 62/85/196 60/86/197
f 60/86/198 67/87/199 68/88/200 59/83/201
f 61/84/202 64/82/203 63/81/204 62/85/205
f 65/76/206 34/41/207 35/40/208 66/77/209
f 67/87/210 36/43/211 37/42/212 68/88/213
f 44/89/214 45/70/215 47/60/216 56/90/217
f 48/59/218 49/58/219 63/91/220 57/92/221
f 47/60/222 48/59/223 57/93/224 56/90/225
f 55/75/226 58/80/227 64/82/228 61/84/229
f 62/94/230 63/91/231 49/58/232 50/57/233
f 55/75/234 61/84/235 59/83/236
f 60/95/237 62/94/238 50/57/239 46/61/240
f 56/78/241 66/77/242 51/96/243 44/97/244
f 59/83/245 68/88/246 65/76/247 55/75/248
f 46/61/249 52/71/250 53/98/251 60/95/252
f 60/86/253 53/74/254 54/73/255 67/87/256
f 12/54/257 51/96/258 66/77/259 35/40/260
f 67/87/261 54/73/262 19/22/263 36/43/264
f 65/76/265 68/88/266 37/42/267 34/41/268
f 13/55/269 69/65/270 71/64/271 12/54/272
f 12/54/273 71/64/274 72/63/275 51/96/276
f 51/96/277 72/63/278 70/62/279 44/97/280
f 45/70/281 73/66/282 74/69/283 14/16/284
f 14/16/285 74/69/286 69/99/287 13/56/288
f 44/89/289 70/67/290 73/66/291 45/70/292
